PathFileType	4	(X/Y/Z)	C:/Users/beibeiliu/ov580/test_trc/User2\sequence.33_training_dense_right.trc
DataRate	CameraRate	NumFrames	NumMarkers	Units	OrigDataRate	OrigDataStartFrame	OrigNumFrames
120	120	16	19	mm	120	107	424
Frame#	Time	ThumbCMC			ThumbMCP			ThumbIP			ThumbTip			IndexMCP			IndexPIP			IndexTip			MiddleMCP			MiddlePIP			MiddleTip			RingMCP			RingPIP			RingTip			PinkyMCP			PinkyPIP			PinkyTip			BackHand1			BackHand2			BackHand3	
		X0	Y0	Z0	X1	Y1	Z1	X2	Y2	Z2	X3	Y3	Z3	X4	Y4	Z4	X5	Y5	Z5	X6	Y6	Z6	X7	Y7	Z7	X8	Y8	Z8	X9	Y9	Z9	X10	Y10	Z10	X11	Y11	Z11	X12	Y12	Z12	X13	Y13	Z13	X14	Y14	Z14	X15	Y15	Z15	X16	Y16	Z16	X17	Y17	Z17	X18	Y18	Z18	
106	0.883333	83.0896	-0.833383	38.2564	50.4784	7.77606	28.3942	15.5643	-1.5358	17.6803	-3.11789	-18.9626	19.0839	24.5271	-48.8951	-0.618788	0.660773	-44.2961	17.1582	19.9708	-27.0423	45.3502	20.5778	-68.6539	9.8764	-3.33294	-57.8449	35.3874	20.307	-35.7642	63.259	20.0907	-78.2809	27.3925	5.28702	-64.5092	50.2588	27.8754	-44.0729	67.4771	32.6867	-89.8843	48.8589	21.7873	-65.0272	73.9815	45.3717	-50.0687	82.773	87.559	-80.319	30.9953	116.505	-67.4973	50.966	97.6778	-40.1608	22.2474	
107	0.891667	74.615	-1.08102	44.8143	40.9162	2.84909	38.8102	5.3362	-4.45605	30.8427	-14.8699	-22.353	31.9673	13.864	-46.6057	7.58364	-9.45403	-38.869	32.1272	17.8587	-25.6224	55.6819	9.62832	-67.2382	18.6426	-9.57957	-56.5648	46.5149	14.4114	-41.0433	73.4711	13.9501	-78.5518	38.1525	1.91115	-65.7454	67.141	27.4851	-45.3689	76.3064	24.3701	-89.1259	59.0144	16.38	-67.3566	80.9808	44.2064	-47.1212	86.0278	79.5712	-78.9508	36.3173	107.713	-64.8382	49.2217	90.2966	-38.5534	27.2756	
108	0.9	67.2801	-4.18155	50.9224	29.8667	3.67199	45.0919	-5.33692	-2.61413	42.6679	-21.4244	-27.1988	45.6466	6.00722	-47.8823	17.3373	-14.995	-41.9777	46.1255	12.6338	-26.9829	65.0586	7.31347	-67.2964	26.4451	-14.1457	-62.4124	58.8363	11.5056	-39.6225	80.3338	6.02468	-80.5618	48.8067	-1.31713	-67.9853	76.8341	29.7666	-48.0563	85.2112	18.3968	-89.0678	67.0254	14.3557	-67.8697	87.724	43.5303	-49.4416	92.876	73.7775	-78.4587	41.3439	102.197	-62.2674	50.3451	82.9459	-38.589	29.1928	
109	0.908333	59.1916	-2.70721	53.1913	25.3172	2.34445	53.1614	-13.0042	-8.40776	51.9247	-27.3076	-32.0542	55.9329	-1.09775	-47.6662	23.733	-21.5652	-45.3099	50.7562	7.50347	-30.3141	73.7198	-2.90285	-72.7789	37.2204	-18.6555	-60.3958	65.7946	10.0443	-43.6588	88.102	3.48042	-85.613	56.4437	-4.81122	-72.7725	82.6253	25.1058	-50.8821	89.2309	15.9	-90.9645	69.5008	14.1848	-68.6998	95.4897	41.4829	-52.2872	92.0625	67.6078	-77.2595	42.3132	98.0855	-65.1055	52.2357	75.3754	-38.426	34.9267	
110	0.916667	50.9891	-4.01045	54.5732	17.2236	0.818346	58.8506	-17.5366	-6.83004	59.8343	-35.1653	-34.8478	62.4496	-5.07704	-54.0182	30.6751	-23.7503	-49.8929	60.3315	1.01024	-32.306	78.5694	-4.86083	-71.5423	38.41	-18.7482	-64.3567	75.7927	10.9677	-44.1266	91.3134	2.99708	-87.1497	58.558	-6.04792	-69.6069	87.1305	21.1456	-52.1932	90.8829	14.977	-94.4559	74.1048	12.9513	-70.6114	96.5094	42.6991	-54.3075	96.4533	65.3344	-77.8839	44.3525	95.3275	-61.5549	55.0796	68.9902	-38.4787	33.2705	
111	0.925	48.7604	-8.28473	58.9836	15.6218	-2.51931	63.4437	-19.0783	-10.6803	64.7864	-35.4157	-37.3072	68.1108	-8.86726	-57.1433	33.2871	-26.2224	-54.3258	63.2493	-1.04298	-35.5843	80.4825	-5.36613	-77.7395	41.9956	-21.3141	-69.2128	74.1218	11.8549	-45.444	90.6068	2.53735	-91.6879	61.3273	-5.46968	-75.6782	87.5781	24.803	-54.4795	91.3112	18.4547	-96.647	73.0775	14.6172	-75.2442	98.791	40.3986	-57.9805	96.7756	60.5507	-75.8382	40.7828	93.5378	-64.4076	53.3861	69.3411	-36.2563	35.6691	
112	0.933333	47.3372	-9.32425	58.7328	13.3007	-9.24372	62.451	-19.6894	-17.9373	65.4582	-36.6535	-44.464	68.1834	-7.96775	-58.6093	32.1221	-24.2084	-60.837	62.8971	-2.60964	-44.2949	80.5234	-7.40966	-80.189	41.726	-18.2854	-77.4238	73.6331	9.84352	-49.1972	88.2735	2.34799	-94.0143	58.3885	-3.46062	-80.4103	87.5861	26.9955	-58.4262	89.922	21.194	-102.191	73.663	17.6124	-79.9162	100.687	42.6757	-60.299	93.4341	64.1577	-80.4147	39.1156	94.047	-63.215	51.4219	66.4348	-38.5911	36.44	
113	0.941667	49.2572	-9.29085	56.5176	13.2671	-7.14415	60.7659	-21.8326	-23.5299	59.3169	-35.8025	-47.2736	63.8445	-3.46118	-66.3249	27.4282	-24.0766	-64.5983	53.3873	1.98793	-48.0476	78.5219	1.98205	-88.6646	37.4878	-13.1171	-80.9603	72.2065	10.3859	-56.9459	84.5674	6.70669	-97.9533	54.4128	0.151132	-88.5275	84.744	27.9357	-61.0537	85.9859	22.1374	-105.572	72.2111	18.1334	-80.4399	93.7253	42.8894	-63.1376	92.3548	66.5492	-81.9774	38.5547	97.3817	-62.0224	53.5848	70.6767	-39.7896	35.5675	
114	0.95	50.1554	-14.7666	51.8891	17.6956	-12.8399	54.722	-13.9549	-26.9932	54.2503	-30.7144	-53.6661	54.3145	0.110447	-68.8148	20.848	-19.1223	-69.2792	48.0863	2.00891	-52.7481	72.2407	4.49316	-93.8015	31.0359	-12.9815	-84.3186	59.6405	11.3007	-59.226	77.7827	9.61295	-101.345	48.0572	2.09651	-88.6026	78.6496	27.0649	-66.9789	83.3884	26.6029	-110.592	66.8147	20.6738	-84.1338	90.2444	44.6083	-66.1545	88.6407	75.5908	-84.9948	37.9638	98.3734	-66.2032	48.063	74.7493	-42.2224	32.8736	
115	0.958333	56.1749	-15.2731	49.3616	19.333	-13.4644	47.5807	-13.1409	-26.811	44.6899	-25.7624	-54.9917	46.3954	7.8874	-73.5362	13.3488	-16.2124	-71.9419	39.3593	2.79563	-50.9739	64.1428	8.93638	-93.5934	21.6396	-9.56304	-87.2552	56.1065	14.146	-58.4562	71.8739	18.1122	-106.342	42.6574	2.51127	-91.6191	68.0966	29.5534	-68.9933	77.2977	27.9266	-109.643	59.7434	21.7548	-85.3302	81.4788	44.0185	-65.9125	80.8925	78.7218	-86.5498	35.5633	102.928	-68.0578	49.8527	80.1724	-49.2371	27.204	
116	0.966667	58.8567	-22.4943	42.621	22.5427	-18.1319	39.456	-11.6178	-29.9059	33.5675	-23.5998	-54.4407	35.0408	12.7185	-75.3837	5.39215	-13.0438	-72.4333	31.07	8.16138	-56.5502	57.0702	12.1272	-94.5178	13.3489	-6.62113	-90.1334	46.2383	14.0345	-65.3699	67.5555	17.225	-106.826	35.3728	4.85808	-95.2757	61.2061	28.7452	-71.5069	70.2134	29.7727	-110.905	51.6061	21.0319	-91.7608	74.5681	44.6607	-66.9504	74.8958	79.7234	-89.5193	28.8071	108.859	-68.8644	47.4046	85.9026	-47.51	24.1903	
117	0.975	62.1988	-24.9357	38.2405	26.9606	-18.2987	32.2264	-2.94912	-35.6824	24.8558	-20.5678	-60.1726	22.071	14.6021	-74.9323	-4.24492	-7.49064	-74.043	19.4711	10.2644	-58.7506	47.5435	19.2233	-96.6164	5.13465	-4.65831	-92.8139	29.385	11.9545	-68.2774	59.9289	23.4516	-110.914	27.0559	7.93127	-97.639	50.3036	31.6473	-70.1948	62.344	32.0654	-114.826	47.0809	22.3992	-94.514	66.8408	45.8545	-68.1807	71.3674	84.7256	-90.5786	24.505	110.884	-74.821	48.0765	87.0212	-52.6044	19.1224	
118	0.983333	67.4754	-23.0618	33.511	31.7516	-24.4968	22.7376	1.21301	-35.3073	14.686	-12.4423	-62.6277	10.6059	26.3519	-75.6728	-13.0029	-1.2646	-77.2362	7.72673	13.0781	-60.5441	37.8047	29.4224	-97.08	-3.25464	0.430885	-95.5127	19.804	12.8766	-74.3205	53.5231	27.1179	-113.557	19.1249	11.75	-99.2117	43.9489	30.4474	-72.4976	55.6712	40.979	-117.609	36.7876	26.0878	-95.7015	62.6253	42.9946	-73.2123	67.5657	93.4476	-92.8399	22.5825	114.555	-76.5545	45.506	94.534	-54.9326	15.4164	
119	0.991667	71.2814	-26.59	28.51	38.1426	-24.746	15.2011	10.3014	-38.5398	3.78199	-4.80051	-63.1614	0.133593	35.589	-76.4513	-20.9363	7.25226	-80.517	-0.231394	18.5321	-63.9643	28.4933	33.3612	-99.891	-11.2693	5.17058	-95.9239	11.6332	13.3446	-77.9341	43.9797	35.7226	-111.696	8.23328	14.4486	-100.986	33.4998	29.4456	-76.4674	47.7265	45.4416	-121.191	30.8608	26.5536	-97.2221	51.2415	42.2464	-74.1131	62.3913	97.1745	-92.7791	21.0915	117.123	-77.2506	40.72	98.8292	-54.0099	14.3002	
120	1	78.7588	-26.8177	24.0936	45.3921	-25.5805	5.30641	18.0788	-39.9638	-7.17456	3.2364	-62.5309	-11.9297	40.3456	-81.0127	-26.3656	13.4791	-78.3285	-10.0555	23.9903	-64.7416	20.173	39.4454	-98.4155	-18.8391	11.6282	-97.2326	1.01769	15.4566	-74.4906	35.326	40.644	-113.163	1.90016	17.0248	-103.714	21.8212	30.5285	-78.2667	43.0969	47.7148	-121.539	24.4811	27.1966	-102.12	41.7837	41.717	-75.1361	56.8173	99.9209	-96.6235	15.4903	122.602	-78.5274	42.7728	107.621	-58.3803	11.9239	
121	1.00833	85.9596	-29.5674	18.8661	56.0497	-24.4756	4.01346	26.8336	-40.4553	-16.8621	10.7536	-61.5412	-22.0104	52.552	-81.9094	-31.7765	20.855	-75.7652	-17.189	31.7475	-60.9948	13.6187	51.2569	-103.256	-21.7755	17.082	-96.04	-8.58428	22.8334	-71.9859	27.6179	45.4174	-116.434	-2.6262	20.8714	-101.407	15.7167	34.3454	-73.7669	34.1278	48.2099	-121.043	18.2527	28.5361	-100.115	31.7645	42.113	-75.4991	50.5374	105.105	-101.154	15.8877	122.797	-86.4912	43.5187	112.089	-65.8445	12.1789	
